HIERARCHY
ROOT Hips
{
	OFFSET 0.000000 0.000000 0.000000
	CHANNELS 6 Xposition Yposition Zposition Zrotation Yrotation Xrotation 
	JOINT LHipJoint
	{
		OFFSET 0.000000 0.000000 0.000000
		CHANNELS 3 Zrotation Yrotation Xrotation
		JOINT LeftUpLeg
		{
			OFFSET 1.363060 -1.794630 0.839290
			CHANNELS 3 Zrotation Yrotation Xrotation
			JOINT LeftLeg
			{
				OFFSET 2.448110 -6.726130 0.000000
				CHANNELS 3 Zrotation Yrotation Xrotation
				JOINT LeftFoot
				{
					OFFSET 2.562200 -7.039590 0.000000
					CHANNELS 3 Zrotation Yrotation Xrotation
					JOINT LeftToeBase
					{
						OFFSET 0.157640 -0.433110 2.322550
						CHANNELS 3 Zrotation Yrotation Xrotation
						End Site
						{
							OFFSET 0.000000 0.000000 0.000000
						}
					}
				}
			}
		}
	}
	JOINT RHipJoint
	{
		OFFSET 0.000000 0.000000 0.000000
		CHANNELS 3 Zrotation Yrotation Xrotation
		JOINT RightUpLeg
		{
			OFFSET -1.305520 -1.794630 0.839290
			CHANNELS 3 Zrotation Yrotation Xrotation
			JOINT RightLeg
			{
				OFFSET -2.542530 -6.985550 0.000000
				CHANNELS 3 Zrotation Yrotation Xrotation
				JOINT RightFoot
				{
					OFFSET -2.568260 -7.056230 0.000000
					CHANNELS 3 Zrotation Yrotation Xrotation
					JOINT RightToeBase
					{
						OFFSET -0.164730 -0.452590 2.363150
						CHANNELS 3 Zrotation Yrotation Xrotation
						End Site
						{
							OFFSET 0.000000 0.000000 0.000000
						}
					}
				}
			}
		}
	}
	JOINT LowerBack
	{
		OFFSET 0.000000 0.000000 0.000000
		CHANNELS 3 Zrotation Yrotation Xrotation
		JOINT Spine
		{
			OFFSET 0.028270 2.035590 -0.193380
			CHANNELS 3 Zrotation Yrotation Xrotation
			JOINT Spine1
			{
				OFFSET 0.056720 2.048850 -0.042750
				CHANNELS 3 Zrotation Yrotation Xrotation
				JOINT Neck
				{
					OFFSET 0.000000 0.000000 0.000000
					CHANNELS 3 Zrotation Yrotation Xrotation
					JOINT Neck1
					{
						OFFSET -0.054170 1.746240 0.172020
						CHANNELS 3 Zrotation Yrotation Xrotation
						JOINT Head
						{
							OFFSET 0.104070 1.761360 -0.123970
							CHANNELS 3 Zrotation Yrotation Xrotation
							End Site
							{
								OFFSET 0.000000 0.000000 0.000000
							}
						}
					}
				}
				JOINT LeftShoulder
				{
					OFFSET 0.000000 0.000000 0.000000
					CHANNELS 3 Zrotation Yrotation Xrotation
					JOINT LeftArm
					{
						OFFSET 3.362410 1.200890 -0.311210
						CHANNELS 3 Zrotation Yrotation Xrotation
						JOINT LeftForeArm
						{
							OFFSET 4.983000 -0.000000 -0.000000
							CHANNELS 3 Zrotation Yrotation Xrotation
							JOINT LeftHand
							{
								OFFSET 3.483560 -0.000000 -0.000000
								CHANNELS 3 Zrotation Yrotation Xrotation
								JOINT LeftFingerBase
								{
									OFFSET 0.000000 0.000000 0.000000
									CHANNELS 3 Zrotation Yrotation Xrotation
									JOINT LeftHandIndex1
									{
										OFFSET 0.715260 -0.000000 -0.000000
										CHANNELS 3 Zrotation Yrotation Xrotation
										End Site
										{
											OFFSET 0.000000 0.000000 0.000000
										}
									}
								}
								JOINT LThumb
								{
									OFFSET 0.000000 0.000000 0.000000
									CHANNELS 3 Zrotation Yrotation Xrotation
									End Site
									{
										OFFSET 0.000000 0.000000 0.000000
									}
								}
							}
						}
					}
				}
				JOINT RightShoulder
				{
					OFFSET 0.000000 0.000000 0.000000
					CHANNELS 3 Zrotation Yrotation Xrotation
					JOINT RightArm
					{
						OFFSET -3.136600 1.374050 -0.404650
						CHANNELS 3 Zrotation Yrotation Xrotation
						JOINT RightForeArm
						{
							OFFSET -5.241900 -0.000000 -0.000000
							CHANNELS 3 Zrotation Yrotation Xrotation
							JOINT RightHand
							{
								OFFSET -3.444170 -0.000000 -0.000000
								CHANNELS 3 Zrotation Yrotation Xrotation
								JOINT RightFingerBase
								{
									OFFSET 0.000000 0.000000 0.000000
									CHANNELS 3 Zrotation Yrotation Xrotation
									JOINT RightHandIndex1
									{
										OFFSET -0.622530 -0.000000 -0.000000
										CHANNELS 3 Zrotation Yrotation Xrotation
										End Site
										{
											OFFSET 0.000000 0.000000 0.000000
										}
									}
								}
								JOINT RThumb
								{
									OFFSET 0.000000 0.000000 0.000000
									CHANNELS 3 Zrotation Yrotation Xrotation
									End Site
									{
										OFFSET 0.000000 0.000000 0.000000
									}
								}
							}
						}
					}
				}
			}
		}
	}
}
MOTION
Frames: 7
Frame Time: 0.033333
1.368723 16.676718 -3.641012 91.886387 -23.360714 -34.716659 -102.811604 -44.234098 62.396720 -4.071280 -9.765291 -46.938112 -50.975994 66.977996 -46.628289 -6.033587 8.418378 17.171590 1.792475 0.471320 -68.221742 39.266322 -7.729253 -105.067043 59.669171 -75.702628 -95.076524 119.662431 -46.543931 -130.986472 0.879472 -28.168538 -9.240965 -0.568820 0.058109 -40.473875 -93.993028 57.246179 -12.430957 -177.237628 70.713746 -175.097444 175.872997 71.441908 176.224098 5.616909 9.320421 10.112469 13.873219 -11.927530 3.149583 0.263204 -0.183066 0.220031 79.747945 60.596169 -17.563802 23.577327 45.159069 -37.745650 -82.127269 35.195086 -153.185630 -1.892199 -45.600450 -5.535063 -59.694122 67.462724 -130.860323 -0.270315 -0.235496 0.251390 0.208900 0.182448 -0.229202 50.305593 62.237336 84.268086 83.403847 18.947039 176.449345 8.758602 -50.763217 48.361017 -6.066310 -5.546294 -1.202953 -48.186673 26.446144 -174.769547 -0.256746 0.206187 -0.203467 -0.172422 -0.233198 -0.214184 
1.273432 16.778227 -2.887594 90.813301 -23.780014 -33.697045 -102.643482 -45.878572 62.267192 -3.987968 -7.251002 -45.813832 -58.424432 66.152332 -48.080076 -5.501292 7.457047 18.479441 2.300480 0.581099 -67.440635 39.044748 -5.570154 -105.501721 56.306831 -75.116047 -94.961624 121.091421 -45.264451 -128.681523 0.314073 -27.968212 -5.507331 -0.754573 0.113610 -39.077508 -93.764769 57.429900 -13.997660 -177.041103 70.410887 -175.992040 170.117604 71.696295 169.509960 5.913585 9.256387 10.176795 10.642000 -12.083943 4.877790 0.186885 -0.217647 0.218837 79.500697 58.349512 -17.171570 29.135765 48.909184 -32.751993 -81.815363 33.164175 -150.411236 -5.012474 -47.035464 -2.041220 -35.800509 67.328166 -100.689345 -0.189016 -0.189978 0.220772 0.222241 0.228816 -0.203268 51.740754 64.112002 86.441489 80.439735 22.096083 173.292862 6.345789 -51.105388 50.900423 -7.106420 -5.183466 -4.521349 -40.069146 25.361291 -168.793205 -0.151029 0.199783 -0.181235 -0.230515 -0.185139 -0.195407 
1.146430 16.894089 -2.206506 90.423187 -23.803980 -33.086693 -103.149050 -46.407291 62.066819 -1.842428 -4.083845 -44.489499 -72.581614 65.391930 -53.531975 -6.926410 8.691605 17.878906 2.510111 0.556435 -64.836596 38.586407 -3.468161 -105.478558 53.795565 -73.481010 -95.229449 121.142568 -43.788962 -125.387164 0.423279 -26.277355 -5.944486 -0.873749 0.154151 -37.590763 -94.703316 58.077458 -15.391784 -176.161409 69.703422 -175.138762 169.868730 73.108655 168.197026 4.539363 11.780165 9.682913 13.020241 -15.581142 5.606287 0.196742 -0.155489 0.186697 83.080760 56.513381 -13.928404 34.352359 52.720270 -25.703907 -80.764733 30.452471 -148.867371 -10.073463 -47.547857 3.349514 -16.696265 57.352876 -73.087051 -0.232310 -0.202680 0.224476 0.181650 0.154161 -0.162710 54.583891 64.821706 89.108216 76.027061 26.090601 169.937838 2.763311 -50.167553 54.705910 -6.639192 -0.802403 -4.365847 -27.819582 23.412625 -167.289594 -0.187084 0.183181 -0.106753 -0.086728 -0.178281 -0.205408 
1.000030 17.005289 -1.601857 90.107686 -23.766639 -32.745548 -103.841651 -47.220125 62.276035 2.005035 0.576004 -42.812125 -87.989583 64.218648 -58.893817 -5.231640 10.333792 17.782214 2.630903 0.457906 -60.822022 39.143996 -2.369137 -104.835892 49.905899 -70.521968 -94.037424 122.874608 -42.890552 -125.245342 -0.448796 -26.345014 -6.429121 -0.868261 0.228484 -35.831899 -96.616897 59.009765 -17.617426 -179.220178 69.750848 -178.215493 169.947636 73.522140 167.954918 3.704187 13.304641 9.911046 15.881511 -13.963805 8.247954 0.174743 -0.222291 0.192095 85.858743 54.084496 -10.586662 41.075058 56.888116 -17.536268 -77.302326 28.392984 -146.269352 -19.278462 -40.945034 11.695739 -7.011938 45.065486 -52.565559 -0.148393 -0.182276 0.183213 0.167877 0.146655 -0.170541 56.672082 64.639682 90.692805 70.616605 31.275924 166.327419 -1.204689 -48.986547 60.226593 -8.130142 1.083737 -1.788626 -20.201664 25.782512 -167.831451 -0.130341 0.214877 -0.137050 -0.164501 -0.143300 -0.134846 
0.861560 17.109755 -1.046405 89.924263 -23.777564 -32.510345 -104.127978 -47.402806 62.752839 6.566673 5.789876 -42.307295 -98.154274 63.407489 -60.354449 -2.967235 13.503707 16.640856 2.742277 0.391272 -55.222858 39.381378 -1.883904 -104.350776 48.196839 -66.949837 -95.502199 122.446206 -44.376103 -124.555922 -0.224911 -25.197837 -7.967187 -0.783263 0.233078 -34.189320 -99.274617 59.412193 -19.828080 -178.975908 69.794773 -178.554460 170.928605 74.122030 167.897964 3.258676 14.195259 10.118024 21.376747 -12.970160 9.799334 0.147745 -0.140013 0.188304 90.937802 52.651102 -5.296223 49.345668 59.981976 -6.588068 -73.922154 26.070797 -144.103172 -18.622782 -32.890570 12.650293 -10.362761 34.023968 -40.537419 -0.218466 -0.176118 0.161229 0.151998 0.167134 -0.133381 58.865511 64.534416 92.274436 65.238464 36.416400 162.016965 -5.718489 -48.665100 64.798702 -9.936209 6.246586 -1.037053 -8.984676 28.666712 -161.147365 -0.163873 0.131001 -0.107955 -0.112748 -0.141335 -0.184289 
0.720368 17.207764 -0.509059 89.844064 -23.519732 -32.506091 -102.734641 -47.875236 61.653395 9.729881 9.696768 -41.476285 -104.218664 62.745254 -61.152732 0.270467 17.125916 15.458232 2.565970 0.256065 -50.536114 39.489990 -2.319805 -104.338088 46.208336 -63.147737 -96.153023 121.330757 -46.465787 -125.567832 -1.952013 -24.692750 -8.052368 -0.700089 0.231005 -32.606014 -101.625853 60.213321 -22.399461 178.725402 70.755602 178.690881 172.348703 73.886213 168.542132 3.723882 13.611673 10.620865 21.236611 -4.742133 12.273179 0.179578 -0.155211 0.179581 96.072129 51.218085 0.549460 60.345555 63.342100 8.806576 -69.045241 22.927709 -140.890334 -20.934731 -21.563318 15.386893 -11.982544 23.441474 -30.943222 -0.180903 -0.167376 0.162843 0.163681 0.183400 -0.156079 59.932624 65.068310 93.597586 58.866249 42.070054 156.146776 -11.414537 -48.348377 71.227859 -11.183108 9.085744 2.213574 -2.887380 34.254994 -162.460302 -0.164404 0.191455 -0.133684 -0.137314 -0.165843 -0.137962 
0.581971 17.295210 0.020197 90.033255 -23.401197 -33.117292 -100.017739 -46.861850 60.202549 12.785622 12.032888 -42.558428 -108.475234 63.170054 -63.840817 -0.298301 15.725944 11.950510 2.462786 0.152601 -46.389666 38.990804 -2.694445 -104.338754 44.690757 -59.922356 -98.029872 121.539974 -49.932058 -128.511163 -3.534443 -23.736290 -5.656438 -0.726407 0.220425 -32.352287 -103.145374 61.667904 -23.924643 178.514390 70.625980 178.389315 177.185576 74.738581 172.015290 5.516820 11.915146 10.405435 20.054137 -1.487427 12.724772 0.217288 -0.129921 0.155827 101.445770 51.737336 7.973178 68.672895 65.686806 22.036420 -67.186637 19.917122 -138.526446 -16.396144 -15.685302 13.325560 -9.083366 18.951623 -15.912696 -0.149889 -0.183282 0.119931 0.134631 0.157423 -0.165436 59.837846 65.697569 93.884542 51.496207 48.439484 149.998113 -19.651609 -49.406680 77.915999 -11.921612 14.176049 3.967874 1.449954 35.798038 -155.147358 -0.152130 0.139375 -0.099456 -0.155984 -0.123869 -0.211197 
